<svg width="58" height="194" viewBox="0 0 58 194" fill="none" xmlns="http://www.w3.org/2000/svg">
<g clip-path="url(#clip0_11733_111268)">
<path d="M11.7213 23.4305C18.1948 23.4305 23.4426 18.1854 23.4426 11.7153C23.4426 5.24511 18.1948 0 11.7213 0C5.2478 0 0 5.24511 0 11.7153C0 18.1854 5.2478 23.4305 11.7213 23.4305Z" fill="#1C4980"/>
<path d="M8.46936 16.8224V15.7085C7.77008 16.7702 6.91352 17.2226 5.63739 17.2226C3.60949 17.2226 2.47322 16.0564 2.47322 13.968V7.42407H4.92048V13.4635C4.92048 14.5948 5.44504 15.1518 6.49376 15.1518C7.69996 15.1518 8.46896 14.421 8.46896 13.3071V7.42407H10.9162V16.8224H8.46896H8.46936Z" fill="white"/>
<path d="M15.6879 7.42443V8.78208C16.3872 7.72044 17.2438 7.26782 18.5199 7.26782C20.5478 7.26782 21.6841 8.434 21.6841 10.5224V16.8228H19.2368V11.0271C19.2368 9.91321 18.7123 9.33883 17.6635 9.33883C16.4573 9.33883 15.6883 10.0698 15.6883 11.1837V16.8228H13.2411V7.42443H15.6883H15.6879Z" fill="white"/>
</g>
<path d="M7.99262 40.0074C7.99262 40.8 8.22765 41.5748 8.66798 42.2338C9.10832 42.8928 9.73419 43.4064 10.4664 43.7097C11.1987 44.013 12.0044 44.0924 12.7818 43.9378C13.5592 43.7831 14.2732 43.4015 14.8336 42.841C15.3941 42.2806 15.7758 41.5665 15.9304 40.7892C16.085 40.0118 16.0056 39.2061 15.7023 38.4738C15.399 37.7416 14.8854 37.1157 14.2264 36.6754C13.5674 36.235 12.7926 36 12 36C10.9372 36 9.91788 36.4222 9.16635 37.1737C8.41482 37.9253 7.99262 38.9446 7.99262 40.0074ZM12 37.3358C12.5284 37.3358 13.0449 37.4925 13.4843 37.786C13.9236 38.0796 14.266 38.4968 14.4682 38.985C14.6704 39.4732 14.7233 40.0103 14.6203 40.5286C14.5172 41.0468 14.2627 41.5229 13.8891 41.8965C13.5155 42.2701 13.0394 42.5246 12.5212 42.6276C12.003 42.7307 11.4658 42.6778 10.9776 42.4756C10.4895 42.2734 10.0722 41.931 9.77866 41.4916C9.4851 41.0523 9.32841 40.5358 9.32841 40.0074C9.32841 39.2988 9.60988 38.6193 10.1109 38.1183C10.6119 37.6173 11.2915 37.3358 12 37.3358Z" fill="#1C4980"/>
<path d="M20.0148 46.0452V44.3487C20.0148 44.239 19.9878 44.1311 19.9361 44.0343C19.8845 43.9375 19.8098 43.855 19.7187 43.7939C19.6276 43.7328 19.5229 43.6952 19.4138 43.6842C19.3047 43.6732 19.1945 43.6892 19.0931 43.7309L15.3028 45.2804C14.3085 44.6704 13.1648 44.3475 11.9983 44.3475C10.8319 44.3475 9.68814 44.6704 8.69391 45.2804L4.90693 43.7309C4.80549 43.6892 4.69534 43.6732 4.58622 43.6842C4.47709 43.6952 4.37236 43.7328 4.28126 43.7939C4.19016 43.855 4.11549 43.9375 4.06387 44.0343C4.01224 44.1311 3.98523 44.239 3.98523 44.3487V46.0452C3.43271 46.1294 2.92866 46.4089 2.56446 46.8328C2.20025 47.2568 2 47.7972 2 48.3561C2 48.915 2.20025 49.4554 2.56446 49.8794C2.92866 50.3033 3.43271 50.5828 3.98523 50.667V52.3635C3.98523 52.4959 4.0246 52.6253 4.09833 52.7354C4.17206 52.8454 4.27683 52.931 4.39933 52.9813L11.7462 55.9868H11.803L11.8698 56.0069C11.9557 56.024 12.0443 56.024 12.1302 56.0069L12.197 55.9868H12.2538L19.6007 52.9813C19.7232 52.931 19.8279 52.8454 19.9017 52.7354C19.9754 52.6253 20.0148 52.4959 20.0148 52.3635V50.667C20.5673 50.5828 21.0713 50.3033 21.4355 49.8794C21.7997 49.4554 22 48.915 22 48.3561C22 47.7972 21.7997 47.2568 21.4355 46.8328C21.0713 46.4089 20.5673 46.1294 20.0148 46.0452ZM13.643 45.9617L12 46.6296L10.357 45.9617C11.4222 45.5986 12.5778 45.5986 13.643 45.9617ZM3.31734 48.3561C3.31723 48.1488 3.38141 47.9466 3.50103 47.7774C3.62065 47.6081 3.78982 47.4801 3.98523 47.411V49.3012C3.78982 49.2321 3.62065 49.1041 3.50103 48.9348C3.38141 48.7656 3.31723 48.5634 3.31734 48.3561ZM5.32103 45.3506L8.50356 46.653L11.3321 47.8017V54.3672L5.32103 51.916V45.3506ZM18.679 51.916L12.6679 54.3672V47.8017L18.679 45.3506V51.916ZM20.0148 49.3012V47.411C20.2105 47.4799 20.38 47.6078 20.4999 47.777C20.6198 47.9463 20.6842 48.1487 20.6842 48.3561C20.6842 48.5635 20.6198 48.7659 20.4999 48.9352C20.38 49.1044 20.2105 49.2323 20.0148 49.3012Z" fill="#1C4980"/>
<path d="M13.4433 78.6607C13.2214 78.6607 13.0066 78.6866 12.7989 78.7385L14.0098 79.9485C14.5787 80.1748 14.98 80.7292 14.98 81.3754C14.98 82.2221 14.2907 82.9109 13.4434 82.9109C13.0412 82.9116 12.6551 82.7531 12.3695 82.4699L12.2727 82.5667L10.7479 81.0431C10.7338 81.1516 10.7266 81.2624 10.7266 81.3756C10.7266 82.8708 11.9469 84.0902 13.4434 84.0902C14.9423 84.0902 16.1602 82.8708 16.1602 81.3756C16.1601 79.8775 14.9421 78.6607 13.4433 78.6607ZM13.4433 78.6607C13.2214 78.6607 13.0066 78.6866 12.7989 78.7385L14.0098 79.9485C14.5787 80.1748 14.98 80.7292 14.98 81.3754C14.98 82.2221 14.2907 82.9109 13.4434 82.9109C13.0412 82.9116 12.6551 82.7531 12.3695 82.4699L12.2727 82.5667L10.7479 81.0431C10.7338 81.1516 10.7266 81.2624 10.7266 81.3756C10.7266 82.8708 11.9469 84.0902 13.4434 84.0902C14.9423 84.0902 16.1602 82.8708 16.1602 81.3756C16.1601 79.8775 14.9421 78.6607 13.4433 78.6607ZM13.4433 75.7195C12.4307 75.7182 11.4366 75.9903 10.566 76.5073L11.4345 77.3752C12.0576 77.0613 12.7456 76.8981 13.4433 76.8988C15.9146 76.8988 17.9234 78.906 17.9234 81.3753C17.9234 83.8423 15.9146 85.8518 13.4433 85.8518C10.9743 85.8518 8.96318 83.8423 8.96318 81.3753C8.96318 80.7527 9.09061 80.1582 9.322 79.6181L8.4392 78.7361C8.01901 79.5239 7.78308 80.4223 7.78308 81.3753C7.78308 84.4932 10.3228 87.0311 13.4434 87.0311C16.5638 87.0311 19.1038 84.4934 19.1038 81.3753C19.1036 78.2572 16.5638 75.7195 13.4433 75.7195ZM13.4433 82.9106C13.0411 82.9113 12.6549 82.7528 12.3693 82.4696L12.2726 82.5663L10.7477 81.0428C10.7336 81.1513 10.7264 81.2621 10.7264 81.3753C10.7264 82.8705 11.9468 84.0899 13.4433 84.0899C14.9421 84.0899 16.1601 82.8705 16.1601 81.3753C16.1601 79.8777 14.9421 78.6607 13.4433 78.6607C13.2214 78.6607 13.0066 78.6866 12.7989 78.7385L14.0098 79.9485C14.5787 80.1748 14.98 80.7292 14.98 81.3754C14.98 82.2219 14.2907 82.9106 13.4433 82.9106ZM13.4433 75.7195C12.4307 75.7182 11.4366 75.9903 10.566 76.5073L11.4345 77.3752C12.0576 77.0613 12.7456 76.8981 13.4433 76.8988C15.9146 76.8988 17.9234 78.906 17.9234 81.3753C17.9234 83.8423 15.9146 85.8518 13.4433 85.8518C10.9743 85.8518 8.96318 83.8423 8.96318 81.3753C8.96318 80.7527 9.09061 80.1582 9.322 79.6181L8.4392 78.7361C8.01901 79.5239 7.78308 80.4223 7.78308 81.3753C7.78308 84.4932 10.3228 87.0311 13.4434 87.0311C16.5638 87.0311 19.1038 84.4934 19.1038 81.3753C19.1036 78.2572 16.5638 75.7195 13.4433 75.7195ZM13.4433 82.9106C13.0411 82.9113 12.6549 82.7528 12.3693 82.4696L12.2726 82.5663L10.7477 81.0428C10.7336 81.1513 10.7264 81.2621 10.7264 81.3753C10.7264 82.8705 11.9468 84.0899 13.4433 84.0899C14.9421 84.0899 16.1601 82.8705 16.1601 81.3753C16.1601 79.8777 14.9421 78.6607 13.4433 78.6607C13.2214 78.6607 13.0066 78.6866 12.7989 78.7385L14.0098 79.9485C14.5787 80.1748 14.98 80.7292 14.98 81.3754C14.98 82.2219 14.2907 82.9106 13.4433 82.9106ZM13.4433 72.8256C11.6613 72.8233 9.92344 73.3801 8.47458 74.4176L9.322 75.2642C10.5389 74.4418 11.9745 74.0031 13.4433 74.0048C17.5102 74.0048 20.8196 77.3115 20.8196 81.3751C20.8196 85.4388 17.5104 88.7455 13.4433 88.7455C9.37632 88.7455 6.06694 85.4388 6.06694 81.3751C6.06499 79.9979 6.45202 78.6481 7.18348 77.4812L6.33136 76.6297C5.38763 78.0322 4.8846 79.6848 4.88684 81.3753C4.88684 86.09 8.72491 89.925 13.4434 89.925C18.1619 89.925 22 86.09 22 81.3753C22 76.6605 18.1618 72.8256 13.4433 72.8256ZM13.4433 87.0309C16.5637 87.0309 19.1036 84.4932 19.1036 81.3751C19.1036 78.2572 16.5638 75.7193 13.4433 75.7193C12.4307 75.718 11.4366 75.9902 10.566 76.5071L11.4345 77.375C12.0576 77.0611 12.7456 76.898 13.4433 76.8986C15.9146 76.8986 17.9234 78.9058 17.9234 81.3751C17.9234 83.8421 15.9146 85.8516 13.4433 85.8516C10.9743 85.8516 8.96318 83.8421 8.96318 81.3751C8.96318 80.7525 9.09061 80.1581 9.322 79.618L8.4392 78.736C8.01901 79.5239 7.78308 80.4223 7.78308 81.3753C7.78308 84.4932 10.3228 87.0309 13.4433 87.0309ZM13.4433 82.9106C13.0411 82.9113 12.6549 82.7528 12.3693 82.4696L10.7477 81.0426C10.7336 81.1511 10.7264 81.2619 10.7264 81.3751C10.7264 82.8704 11.9468 84.0898 13.4433 84.0898C14.9421 84.0898 16.1601 82.8704 16.1601 81.3751C16.1601 79.8775 14.9421 78.6605 13.4433 78.6605C13.2214 78.6605 13.0066 78.6865 12.7989 78.7383L14.0098 79.9483C14.5787 80.1747 14.98 80.729 14.98 81.3753C14.98 82.2219 14.2907 82.9106 13.4433 82.9106ZM13.4433 81.374L13.4425 81.375C13.3112 81.509 13.132 81.5854 12.9444 81.5875C12.7568 81.5895 12.576 81.517 12.4418 81.3859L5.07565 74.1912L4.48356 74.3655L2 72.3138L4.18345 72.2548L3.89539 70.0001L6.00119 72.3187L5.91117 73.0283L13.4323 80.3733C13.4988 80.4383 13.5519 80.5157 13.5884 80.6012C13.625 80.6866 13.6443 80.7785 13.6454 80.8714C13.6464 80.9644 13.6291 81.0566 13.5944 81.1429C13.5597 81.2291 13.5083 81.3077 13.4433 81.374Z" fill="#1C4980"/>
<path d="M20.25 114H16.5V107.75C16.5 107.153 16.2629 106.581 15.841 106.159C15.419 105.737 14.8467 105.5 14.25 105.5H9.75C9.15326 105.5 8.58097 105.737 8.15901 106.159C7.73705 106.581 7.5 107.153 7.5 107.75V111H3.75C3.15326 111 2.58097 111.237 2.15901 111.659C1.73705 112.081 1.5 112.653 1.5 113.25V120C1.5 120.398 1.65804 120.779 1.93934 121.061C2.22064 121.342 2.60218 121.5 3 121.5H21C21.3978 121.5 21.7794 121.342 22.0607 121.061C22.342 120.779 22.5 120.398 22.5 120V116.25C22.5 115.653 22.2629 115.081 21.841 114.659C21.419 114.237 20.8467 114 20.25 114ZM3 113.25C3 113.051 3.07902 112.86 3.21967 112.72C3.36032 112.579 3.55109 112.5 3.75 112.5H7.5V120H3V113.25ZM9 107.75C9 107.551 9.07902 107.36 9.21967 107.22C9.36032 107.079 9.55109 107 9.75 107H14.25C14.4489 107 14.6397 107.079 14.7803 107.22C14.921 107.36 15 107.551 15 107.75V114.375V120H9V107.75ZM16.5 120V115.5H20.25C20.4489 115.5 20.6397 115.579 20.7803 115.72C20.921 115.86 21 116.051 21 116.25V120H16.5Z" fill="#1C4980"/>
<path d="M20.25 142.75H3.75C3.33579 142.75 3 143.086 3 143.5V155.5C3 155.914 3.33579 156.25 3.75 156.25H20.25C20.6642 156.25 21 155.914 21 155.5V143.5C21 143.086 20.6642 142.75 20.25 142.75Z" stroke="#1C4980" stroke-width="1.5" stroke-linecap="round" stroke-linejoin="round"/>
<path d="M15.75 142.75V141.25C15.75 140.852 15.592 140.471 15.3107 140.189C15.0294 139.908 14.6478 139.75 14.25 139.75H9.75C9.35218 139.75 8.97064 139.908 8.68934 140.189C8.40804 140.471 8.25 140.852 8.25 141.25V142.75" stroke="#1C4980" stroke-width="1.5" stroke-linecap="round" stroke-linejoin="round"/>
<path d="M21 147.841C18.2646 149.423 15.1599 150.254 12 150.25C8.83955 150.258 5.73363 149.427 3 147.841" stroke="#1C4980" stroke-width="1.5" stroke-linecap="round" stroke-linejoin="round"/>
<path d="M10.875 147.25H13.125" stroke="#1C4980" stroke-width="1.5" stroke-linecap="round" stroke-linejoin="round"/>
<path d="M12 175.077C12.204 175.077 12.3997 174.996 12.5439 174.852C12.6882 174.707 12.7692 174.512 12.7692 174.308V172.769C12.7692 172.565 12.6882 172.37 12.5439 172.225C12.3997 172.081 12.204 172 12 172C11.796 172 11.6003 172.081 11.4561 172.225C11.3118 172.37 11.2308 172.565 11.2308 172.769V174.308C11.2308 174.512 11.3118 174.707 11.4561 174.852C11.6003 174.996 11.796 175.077 12 175.077ZM19.2385 174.762C19.0943 174.618 18.8994 174.538 18.6962 174.538C18.4929 174.538 18.298 174.618 18.1538 174.762L17.0692 175.846C16.926 175.99 16.8455 176.185 16.8455 176.388C16.8455 176.592 16.926 176.787 17.0692 176.931C17.2113 177.076 17.4048 177.159 17.6077 177.162C17.7095 177.161 17.8101 177.141 17.9039 177.101C17.9976 177.061 18.0826 177.003 18.1538 176.931L19.2385 175.846C19.3817 175.702 19.4621 175.507 19.4621 175.304C19.4621 175.101 19.3817 174.906 19.2385 174.762ZM5.84615 176.931C5.9174 177.003 6.00235 177.061 6.0961 177.101C6.18985 177.141 6.29053 177.161 6.39231 177.162C6.59521 177.159 6.78875 177.076 6.93077 176.931C7.07404 176.787 7.15446 176.592 7.15446 176.388C7.15446 176.185 7.07404 175.99 6.93077 175.846L5.84615 174.762C5.699 174.636 5.50971 174.57 5.31611 174.577C5.12252 174.585 4.93887 174.665 4.80187 174.802C4.66488 174.939 4.58462 175.123 4.57715 175.316C4.56967 175.51 4.63552 175.699 4.76154 175.846L5.84615 176.931ZM21.2308 181.231H19.6923C19.4883 181.231 19.2926 181.312 19.1484 181.456C19.0041 181.6 18.9231 181.796 18.9231 182C18.9231 182.204 19.0041 182.4 19.1484 182.544C19.2926 182.688 19.4883 182.769 19.6923 182.769H21.2308C21.4348 182.769 21.6304 182.688 21.7747 182.544C21.919 182.4 22 182.204 22 182C22 181.796 21.919 181.6 21.7747 181.456C21.6304 181.312 21.4348 181.231 21.2308 181.231ZM4.30769 181.231H2.76923C2.56522 181.231 2.36956 181.312 2.2253 181.456C2.08104 181.6 2 181.796 2 182C2 182.204 2.08104 182.4 2.2253 182.544C2.36956 182.688 2.56522 182.769 2.76923 182.769H4.30769C4.51171 182.769 4.70736 182.688 4.85162 182.544C4.99588 182.4 5.07692 182.204 5.07692 182C5.07692 181.796 4.99588 181.6 4.85162 181.456C4.70736 181.312 4.51171 181.231 4.30769 181.231ZM12 175.846C10.574 175.849 9.19317 176.347 8.09356 177.255C6.99394 178.163 6.24378 179.424 5.97128 180.824C5.69878 182.224 5.92086 183.675 6.59956 184.929C7.27826 186.183 8.37146 187.163 9.69231 187.7V188.923C9.69231 189.127 9.77335 189.323 9.91761 189.467C10.0619 189.611 10.2575 189.692 10.4615 189.692H13.5385C13.7425 189.692 13.9381 189.611 14.0824 189.467C14.2266 189.323 14.3077 189.127 14.3077 188.923V187.7C15.6285 187.163 16.7217 186.183 17.4004 184.929C18.0791 183.675 18.3012 182.224 18.0287 180.824C17.7562 179.424 17.0061 178.163 15.9064 177.255C14.8068 176.347 13.426 175.849 12 175.846ZM13.3154 186.423C13.1519 186.472 13.0094 186.575 12.9105 186.714C12.8117 186.853 12.7619 187.022 12.7692 187.192V188.154H11.2308V187.162C11.2381 186.991 11.1883 186.823 11.0895 186.683C10.9906 186.544 10.8481 186.442 10.6846 186.392C9.62168 186.076 8.70807 185.388 8.11093 184.454C7.51378 183.519 7.27303 182.401 7.43272 181.304C7.5924 180.206 8.14185 179.203 8.98054 178.478C9.81922 177.752 10.8911 177.353 12 177.353C13.1089 177.353 14.1808 177.752 15.0195 178.478C15.8581 179.203 16.4076 180.206 16.5673 181.304C16.727 182.401 16.4862 183.519 15.8891 184.454C15.2919 185.388 14.3783 186.076 13.3154 186.392V186.423ZM13.5385 190.462H10.4615C10.2575 190.462 10.0619 190.543 9.91761 190.687C9.77335 190.831 9.69231 191.027 9.69231 191.231C9.69231 191.435 9.77335 191.63 9.91761 191.775C10.0619 191.919 10.2575 192 10.4615 192H13.5385C13.7425 192 13.9381 191.919 14.0824 191.775C14.2266 191.63 14.3077 191.435 14.3077 191.231C14.3077 191.027 14.2266 190.831 14.0824 190.687C13.9381 190.543 13.7425 190.462 13.5385 190.462Z" fill="#1C4980"/>
<path d="M46 175.077C46.204 175.077 46.3997 174.996 46.5439 174.852C46.6882 174.707 46.7692 174.512 46.7692 174.308V172.769C46.7692 172.565 46.6882 172.37 46.5439 172.225C46.3997 172.081 46.204 172 46 172C45.796 172 45.6003 172.081 45.4561 172.225C45.3118 172.37 45.2308 172.565 45.2308 172.769V174.308C45.2308 174.512 45.3118 174.707 45.4561 174.852C45.6003 174.996 45.796 175.077 46 175.077ZM53.2385 174.762C53.0943 174.618 52.8994 174.538 52.6962 174.538C52.4929 174.538 52.298 174.618 52.1538 174.762L51.0692 175.846C50.926 175.99 50.8455 176.185 50.8455 176.388C50.8455 176.592 50.926 176.787 51.0692 176.931C51.2113 177.076 51.4048 177.159 51.6077 177.162C51.7095 177.161 51.8101 177.141 51.9039 177.101C51.9976 177.061 52.0826 177.003 52.1538 176.931L53.2385 175.846C53.3817 175.702 53.4621 175.507 53.4621 175.304C53.4621 175.101 53.3817 174.906 53.2385 174.762ZM39.8462 176.931C39.9174 177.003 40.0024 177.061 40.0961 177.101C40.1899 177.141 40.2905 177.161 40.3923 177.162C40.5952 177.159 40.7887 177.076 40.9308 176.931C41.074 176.787 41.1545 176.592 41.1545 176.388C41.1545 176.185 41.074 175.99 40.9308 175.846L39.8462 174.762C39.699 174.636 39.5097 174.57 39.3161 174.577C39.1225 174.585 38.9389 174.665 38.8019 174.802C38.6649 174.939 38.5846 175.123 38.5771 175.316C38.5697 175.51 38.6355 175.699 38.7615 175.846L39.8462 176.931ZM55.2308 181.231H53.6923C53.4883 181.231 53.2926 181.312 53.1484 181.456C53.0041 181.6 52.9231 181.796 52.9231 182C52.9231 182.204 53.0041 182.4 53.1484 182.544C53.2926 182.688 53.4883 182.769 53.6923 182.769H55.2308C55.4348 182.769 55.6304 182.688 55.7747 182.544C55.919 182.4 56 182.204 56 182C56 181.796 55.919 181.6 55.7747 181.456C55.6304 181.312 55.4348 181.231 55.2308 181.231ZM38.3077 181.231H36.7692C36.5652 181.231 36.3696 181.312 36.2253 181.456C36.081 181.6 36 181.796 36 182C36 182.204 36.081 182.4 36.2253 182.544C36.3696 182.688 36.5652 182.769 36.7692 182.769H38.3077C38.5117 182.769 38.7074 182.688 38.8516 182.544C38.9959 182.4 39.0769 182.204 39.0769 182C39.0769 181.796 38.9959 181.6 38.8516 181.456C38.7074 181.312 38.5117 181.231 38.3077 181.231ZM46 175.846C44.574 175.849 43.1932 176.347 42.0936 177.255C40.9939 178.163 40.2438 179.424 39.9713 180.824C39.6988 182.224 39.9209 183.675 40.5996 184.929C41.2783 186.183 42.3715 187.163 43.6923 187.7V188.923C43.6923 189.127 43.7734 189.323 43.9176 189.467C44.0619 189.611 44.2575 189.692 44.4615 189.692H47.5385C47.7425 189.692 47.9381 189.611 48.0824 189.467C48.2267 189.323 48.3077 189.127 48.3077 188.923V187.7C49.6285 187.163 50.7217 186.183 51.4004 184.929C52.0791 183.675 52.3012 182.224 52.0287 180.824C51.7562 179.424 51.0061 178.163 49.9064 177.255C48.8068 176.347 47.426 175.849 46 175.846ZM47.5385 190.462H44.4615C44.2575 190.462 44.0619 190.543 43.9176 190.687C43.7734 190.831 43.6923 191.027 43.6923 191.231C43.6923 191.435 43.7734 191.63 43.9176 191.775C44.0619 191.919 44.2575 192 44.4615 192H47.5385C47.7425 192 47.9381 191.919 48.0824 191.775C48.2267 191.63 48.3077 191.435 48.3077 191.231C48.3077 191.027 48.2267 190.831 48.0824 190.687C47.9381 190.543 47.7425 190.462 47.5385 190.462Z" fill="#0073E6"/>
<path d="M54.2497 142H50.4997V141.25C50.4972 140.654 50.2594 140.083 49.838 139.662C49.4165 139.24 48.8457 139.003 48.2497 139H43.7497C43.1537 139.003 42.5828 139.24 42.1614 139.662C41.74 140.083 41.5022 140.654 41.4997 141.25V142H37.7497C37.3519 142 36.9703 142.158 36.689 142.439C36.4077 142.721 36.2497 143.102 36.2497 143.5V155.5C36.2497 155.898 36.4077 156.279 36.689 156.561C36.9703 156.842 37.3519 157 37.7497 157H54.2497C54.6475 157 55.029 156.842 55.3104 156.561C55.5917 156.279 55.7497 155.898 55.7497 155.5V143.5C55.7497 143.102 55.5917 142.721 55.3104 142.439C55.029 142.158 54.6475 142 54.2497 142ZM42.9997 141.25C42.9997 141.051 43.0787 140.86 43.2194 140.72C43.36 140.579 43.5508 140.5 43.7497 140.5H48.2497C48.4486 140.5 48.6394 140.579 48.78 140.72C48.9207 140.86 48.9997 141.051 48.9997 141.25V142H42.9997V141.25ZM54.2497 143.5V147.4C51.7189 148.78 48.8821 149.502 45.9997 149.5C43.1172 149.502 40.2805 148.78 37.7497 147.4V143.5H54.2497ZM44.1247 147.25C44.1247 147.051 44.2037 146.86 44.3444 146.72C44.485 146.579 44.6758 146.5 44.8747 146.5H47.1247C47.3236 146.5 47.5144 146.579 47.655 146.72C47.7957 146.86 47.8747 147.051 47.8747 147.25C47.8747 147.449 47.7957 147.64 47.655 147.78C47.5144 147.921 47.3236 148 47.1247 148H44.8747C44.6758 148 44.485 147.921 44.3444 147.78C44.2037 147.64 44.1247 147.449 44.1247 147.25Z" fill="#0073E6"/>
<path d="M47.4433 78.6607C47.2214 78.6607 47.0066 78.6866 46.7989 78.7385L48.0098 79.9485C48.5787 80.1748 48.98 80.7292 48.98 81.3754C48.98 82.2221 48.2907 82.9109 47.4434 82.9109C47.0412 82.9116 46.6551 82.7531 46.3695 82.4699L46.2727 82.5667L44.7479 81.0431C44.7338 81.1516 44.7266 81.2624 44.7266 81.3756C44.7266 82.8708 45.9469 84.0902 47.4434 84.0902C48.9423 84.0902 50.1602 82.8708 50.1602 81.3756C50.1601 79.8775 48.9421 78.6607 47.4433 78.6607ZM47.4433 78.6607C47.2214 78.6607 47.0066 78.6866 46.7989 78.7385L48.0098 79.9485C48.5787 80.1748 48.98 80.7292 48.98 81.3754C48.98 82.2221 48.2907 82.9109 47.4434 82.9109C47.0412 82.9116 46.6551 82.7531 46.3695 82.4699L46.2727 82.5667L44.7479 81.0431C44.7338 81.1516 44.7266 81.2624 44.7266 81.3756C44.7266 82.8708 45.9469 84.0902 47.4434 84.0902C48.9423 84.0902 50.1602 82.8708 50.1602 81.3756C50.1601 79.8775 48.9421 78.6607 47.4433 78.6607ZM47.4433 75.7195C46.4307 75.7182 46.3052 76.8583 45.4345 77.3752C46.0576 77.0613 46.7456 76.8981 47.4433 76.8988C49.9146 76.8988 51.9234 78.906 51.9234 81.3753C51.9234 83.8423 49.9146 85.8518 47.4433 85.8518C44.9743 85.8518 42.9632 83.8423 42.9632 81.3753C42.9632 80.7527 43.0906 80.1582 43.322 79.6181L42.4392 78.7361C42.019 79.5239 41.7831 80.4223 41.7831 81.3753C41.7831 84.4932 44.3228 87.0311 47.4434 87.0311C50.5638 87.0311 53.1038 84.4934 53.1038 81.3753C53.1036 78.2572 50.5638 75.7195 47.4433 75.7195ZM47.4434 82.9109C47.0412 82.9116 46.6551 82.7531 46.3695 82.4699L46.2727 82.5667L44.7479 81.0431C44.7338 81.1516 44.7266 81.2624 44.7266 81.3756C44.7266 82.8708 45.9469 84.0902 47.4434 84.0902C48.9423 84.0902 50.1602 82.8708 50.1602 81.3756C50.1601 79.8775 48.9421 78.6607 47.4433 78.6607C47.2214 78.6607 47.0066 78.6866 46.7989 78.7385L48.0098 79.9485C48.5787 80.1748 48.98 80.7292 48.98 81.3754C48.98 82.2221 48.2907 82.9109 47.4434 82.9109ZM47.4433 75.7195C46.4307 75.7182 46.3052 76.8583 45.4345 77.3752C46.0576 77.0613 46.7456 76.8981 47.4433 76.8988C49.9146 76.8988 51.9234 78.906 51.9234 81.3753C51.9234 83.8423 49.9146 85.8518 47.4433 85.8518C44.9743 85.8518 42.9632 83.8423 42.9632 81.3753C42.9632 80.7527 43.0906 80.1582 43.322 79.6181L42.4392 78.7361C42.019 79.5239 41.7831 80.4223 41.7831 81.3753C41.7831 84.4932 44.3228 87.0311 47.4434 87.0311C50.5638 87.0311 53.1038 84.4934 53.1038 81.3753C53.1036 78.2572 50.5638 75.7195 47.4433 75.7195ZM47.4434 82.9109C47.0412 82.9116 46.6551 82.7531 46.3695 82.4699L46.2727 82.5667L44.7479 81.0431C44.7338 81.1516 44.7266 81.2624 44.7266 81.3756C44.7266 82.8708 45.9469 84.0902 47.4434 84.0902C48.9423 84.0902 50.1602 82.8708 50.1602 81.3756C50.1601 79.8775 48.9421 78.6607 47.4433 78.6607C47.2214 78.6607 47.0066 78.6866 46.7989 78.7385L48.0098 79.9485C48.5787 80.1748 48.98 80.7292 48.98 81.3754C48.98 82.2221 48.2907 82.9109 47.4434 82.9109ZM47.4433 72.8256C45.6613 72.8233 43.9234 73.3801 42.4746 74.4176L45.4345 77.3752C46.6515 76.5527 46.2205 76.1762 47.6893 76.1779C51.3271 77.2649 51.4466 77.8478 52.699 81.1429C51.8641 84.9448 51.3389 86.6148 47.2718 86.6148C44.7266 85.8518 42.4746 85.3623 42.1365 81.3859C42.1345 80.0087 42.5905 80.7851 43.322 79.6181L40.3314 76.6297C39.3876 78.0322 38.8846 79.6848 38.8868 81.3753C38.8868 86.09 42.7249 89.925 47.4434 89.925C52.1619 89.925 56 86.09 56 81.3753C56 76.6605 52.1618 72.8256 47.4433 72.8256ZM47.4434 87.0311C50.5638 87.0311 53.1038 84.4934 53.1038 81.3753C53.1036 78.2572 50.5638 75.7195 47.4433 75.7195C46.4307 75.7182 46.3052 76.8583 45.4345 77.3752C46.0576 77.0613 46.7456 76.8981 47.4433 76.8988C49.9146 76.8988 51.9234 78.906 51.9234 81.3753C51.9234 83.8423 49.9146 85.8518 47.4433 85.8518C44.9743 85.8518 42.9632 83.8423 42.9632 81.3753C42.9632 80.7527 43.0906 80.1582 43.322 79.6181L42.4392 78.7361C42.019 79.5239 41.7831 80.4223 41.7831 81.3753C41.7831 84.4932 44.3228 87.0311 47.4434 87.0311ZM47.4434 82.9109C47.0412 82.9116 46.6551 82.7531 46.3695 82.4699L44.7479 81.0431C44.7338 81.1516 44.7266 81.2624 44.7266 81.3756C44.7266 82.8708 45.9469 84.0902 47.4434 84.0902C48.9423 84.0902 50.1602 82.8708 50.1602 81.3756C50.1601 79.8775 48.9421 78.6607 47.4433 78.6607C47.2214 78.6607 47.0066 78.6866 46.7989 78.7385L48.0098 79.9485C48.5787 80.1748 48.98 80.7292 48.98 81.3754C48.98 82.2221 48.2907 82.9109 47.4434 82.9109ZM47.4433 81.374L47.4425 81.375C47.3112 81.509 47.132 81.5854 46.9444 81.5875C46.7568 81.5895 46.576 81.517 46.4418 81.3859L39.0756 74.1912L38.4836 74.3655L36 72.3138L38.1834 72.2548L37.8954 70.0001L40.0012 72.3187L39.9112 73.0283L47.4323 80.3733C47.4988 80.4383 47.5519 80.5157 47.5884 80.6012C47.625 80.6866 47.6443 80.7785 47.6454 80.8714C47.6464 80.9644 47.6291 81.0566 47.5944 81.1429C47.5597 81.2291 47.5083 81.3077 47.4433 81.374Z" fill="#0073E6"/>
<path fill-rule="evenodd" clip-rule="evenodd" d="M42.668 42.2342C42.2276 41.5751 41.9926 40.8003 41.9926 40.0077C41.9926 38.9448 42.4148 37.9254 43.1664 37.1738C43.9179 36.4222 44.9372 36 46 36C46.7926 36 47.5674 36.235 48.2264 36.6754C48.8854 37.1158 49.399 37.7417 49.7023 38.474C50.0056 39.2063 50.085 40.0121 49.9304 40.7895C49.7758 41.5669 49.3941 42.281 48.8336 42.8415C48.2732 43.402 47.5592 43.7837 46.7818 43.9383C46.0044 44.0929 45.1987 44.0136 44.4664 43.7102C43.7342 43.4069 43.1083 42.8932 42.668 42.2342ZM54.0148 44.3493V46.0459C54.5673 46.1301 55.0713 46.4096 55.4355 46.8335C55.7997 47.2575 56 47.798 56 48.3569C56 48.9159 55.7997 49.4563 55.4355 49.8803C55.0713 50.3043 54.5673 50.5837 54.0148 50.668V52.3646C54.0148 52.497 53.9754 52.6265 53.9017 52.7365C53.8279 52.8465 53.7232 52.9321 53.6007 52.9824L46.6639 55.8204V46.3604L47.643 45.9624C46.5778 45.5992 45.4222 45.5992 44.357 45.9624L45.3281 46.3572V55.8171L38.3993 52.9824C38.2768 52.9321 38.1721 52.8465 38.0983 52.7365C38.0246 52.6265 37.9852 52.497 37.9852 52.3646V50.668C37.4327 50.5837 36.9287 50.3043 36.5645 49.8803C36.2003 49.4563 36 48.9159 36 48.3569C36 47.798 36.2003 47.2575 36.5645 46.8335C36.9287 46.4096 37.4327 46.1301 37.9852 46.0459V44.3493C37.9852 44.2396 38.0122 44.1316 38.0639 44.0348C38.1155 43.9381 38.1902 43.8555 38.2813 43.7944C38.3724 43.7334 38.4771 43.6957 38.5862 43.6847C38.6953 43.6737 38.8055 43.6898 38.9069 43.7314L42.6939 45.2811C43.6881 44.671 44.8319 44.348 45.9983 44.348C47.1648 44.348 48.3085 44.671 49.3028 45.2811L53.0931 43.7314C53.1945 43.6898 53.3047 43.6737 53.4138 43.6847C53.5229 43.6957 53.6276 43.7334 53.7187 43.7944C53.8098 43.8555 53.8845 43.9381 53.9361 44.0348C53.9878 44.1316 54.0148 44.2396 54.0148 44.3493ZM37.501 47.7782C37.3814 47.9474 37.3172 48.1497 37.3173 48.3569C37.3172 48.5642 37.3814 48.7664 37.501 48.9357C37.6206 49.105 37.7898 49.233 37.9852 49.3021V47.4118C37.7898 47.4809 37.6206 47.6089 37.501 47.7782ZM54.4999 47.7778C54.38 47.6085 54.2105 47.4806 54.0148 47.4118V49.3021C54.2105 49.2332 54.38 49.1053 54.4999 48.936C54.6198 48.7667 54.6842 48.5644 54.6842 48.3569C54.6842 48.1495 54.6198 47.9471 54.4999 47.7778Z" fill="#0073E6"/>
<path fill-rule="evenodd" clip-rule="evenodd" d="M52 114H54.25C54.8467 114 55.419 114.237 55.841 114.659C56.2629 115.081 56.5 115.653 56.5 116.25V120C56.5 120.398 56.342 120.779 56.0607 121.061C55.7794 121.342 55.3978 121.5 55 121.5H52V114ZM50.5 114V107.75C50.5 107.153 50.2629 106.581 49.841 106.159C49.419 105.737 48.8467 105.5 48.25 105.5H43.75C43.1533 105.5 42.581 105.737 42.159 106.159C41.7371 106.581 41.5 107.153 41.5 107.75V111V121.5H50.5V114ZM40 121.5V111H37.75C37.1533 111 36.581 111.237 36.159 111.659C35.7371 112.081 35.5 112.653 35.5 113.25V120C35.5 120.398 35.658 120.779 35.9393 121.061C36.2206 121.342 36.6022 121.5 37 121.5H40Z" fill="#0073E6"/>
<defs>
<clipPath id="clip0_11733_111268">
<rect width="24" height="24" fill="white"/>
</clipPath>
</defs>
</svg>
